<svg width="64" height="24" fill="none" xmlns="http://www.w3.org/2000/svg"><path fill-rule="evenodd" clip-rule="evenodd" d="M.26.261A.871.871 0 0 0 0 .9v16.977c0 .251.086.464.26.638a.86.86 0 0 0 .634.261.86.86 0 0 0 .634-.26.871.871 0 0 0 .26-.64v-6.413c.019-.696.173-1.35.461-1.959a5.356 5.356 0 0 1 1.124-1.581c.462-.445 1-.798 1.615-1.06a4.964 4.964 0 0 1 1.96-.391c.712 0 1.38.135 2.005.406a5.222 5.222 0 0 1 2.753 2.771c.27.63.404 1.301.404 2.017v6.21c0 .252.086.465.26.64a.86.86 0 0 0 .634.26.86.86 0 0 0 .634-.26.871.871 0 0 0 .26-.64v-6.21c0-.967-.183-1.876-.548-2.728a7.07 7.07 0 0 0-1.485-2.22 7.018 7.018 0 0 0-2.206-1.494 6.725 6.725 0 0 0-2.71-.552c-1.038 0-2 .208-2.884.624a6.975 6.975 0 0 0-2.277 1.698V.9a.871.871 0 0 0-.26-.639A.86.86 0 0 0 .894 0a.86.86 0 0 0-.635.261zm50.717 6.334a.904.904 0 0 0 .901-.907c0-.5-.403-.907-.901-.907a.904.904 0 0 0-.901.907c0 .5.403.907.901.907zm12.074 0a.904.904 0 0 0 .9-.907c0-.5-.403-.907-.9-.907a.904.904 0 0 0-.901.907c0 .5.403.907.9.907zM23.457 4.7c.923 0 1.802.189 2.639.566A7.328 7.328 0 0 1 28.3 6.791a7.326 7.326 0 0 1 1.514 2.234c.375.852.562 1.76.562 2.728v6.124a.871.871 0 0 1-.26.638.86.86 0 0 1-.634.261.86.86 0 0 1-.634-.261.871.871 0 0 1-.26-.638v-1.77a9.041 9.041 0 0 1-2.292 1.842c-.893.513-1.86.77-2.897.77a6.94 6.94 0 0 1-4.902-1.974 6.778 6.778 0 0 1-1.5-2.206c-.364-.851-.547-1.78-.547-2.786a6.913 6.913 0 0 1 2.004-4.919 7.175 7.175 0 0 1 2.22-1.509 7.554 7.554 0 0 1 2.782-.624zm-5.218 7.052c0 .716.134 1.389.403 2.017a5.223 5.223 0 0 0 2.754 2.771c.625.272 1.293.407 2.004.407.692 0 1.345-.13 1.96-.392a5.183 5.183 0 0 0 1.63-1.088 5.283 5.283 0 0 0 1.124-1.64c.279-.628.437-1.32.476-2.075 0-.715-.135-1.393-.404-2.031a5.214 5.214 0 0 0-1.11-1.669A5.176 5.176 0 0 0 23.4 6.53c-.711 0-1.38.135-2.004.406a5.222 5.222 0 0 0-1.644 1.117c-.47.474-.84 1.03-1.11 1.669a5.177 5.177 0 0 0-.403 2.031zM40.6 18.747c-1.076-.038-2.056-.314-2.94-.827a9.49 9.49 0 0 1-2.278-1.814V23.1a.871.871 0 0 1-.26.639.86.86 0 0 1-.634.26.86.86 0 0 1-.635-.26.871.871 0 0 1-.26-.639V11.695c0-1.006.183-1.935.549-2.786a6.78 6.78 0 0 1 1.499-2.205 6.941 6.941 0 0 1 4.902-1.973c.98 0 1.893.183 2.739.55.846.368 1.58.871 2.206 1.51a7.297 7.297 0 0 1 1.484 2.22 6.67 6.67 0 0 1 .548 2.684c0 .967-.187 1.877-.562 2.728a7.328 7.328 0 0 1-1.514 2.235 7.33 7.33 0 0 1-2.206 1.523 6.344 6.344 0 0 1-2.638.566zm-5.218-7.052c.019.755.172 1.451.46 2.09a5.58 5.58 0 0 0 1.125 1.654 5.015 5.015 0 0 0 3.576 1.48 5.178 5.178 0 0 0 3.676-1.524c.47-.474.84-1.03 1.11-1.668.269-.639.404-1.316.404-2.032 0-.715-.135-1.388-.404-2.017A5.177 5.177 0 0 0 40.543 6.5c-.712 0-1.38.136-2.004.407a5.222 5.222 0 0 0-2.754 2.771 5.07 5.07 0 0 0-.403 2.017zm14.72-2.524c0-.252.087-.465.26-.639a.86.86 0 0 1 .634-.261.86.86 0 0 1 .635.261c.173.174.26.387.26.639v2.582c0 .716.134 1.389.403 2.017a5.223 5.223 0 0 0 2.754 2.771c.624.272 1.292.407 2.003.407.711 0 1.38-.135 2.004-.406a5.222 5.222 0 0 0 2.754-2.772c.269-.628.403-1.3.403-2.017V9.171c0-.252.087-.465.26-.639a.86.86 0 0 1 .634-.261.86.86 0 0 1 .634.261c.173.174.26.387.26.639v2.582c0 .968-.183 1.877-.548 2.728a7.07 7.07 0 0 1-1.485 2.22 7.02 7.02 0 0 1-2.206 1.495 6.725 6.725 0 0 1-2.71.551 6.725 6.725 0 0 1-2.71-.551 7.017 7.017 0 0 1-2.206-1.495 7.07 7.07 0 0 1-1.485-2.22 6.845 6.845 0 0 1-.548-2.728V9.171z" fill="#3D3D3D"/></svg>