<svg width="18" height="17" fill="none" xmlns="http://www.w3.org/2000/svg"><path opacity=".7" fill-rule="evenodd" clip-rule="evenodd" d="M15.75.063H1.843C1.034.063.36.738.36 1.548v4.134h5.62c.843-.608 1.738-1.13 2.818-1.13 1.046 0 1.991.522 2.818 1.13h5.62V1.547c0-.81-.676-1.484-1.486-1.484zm.354 3.914c0 .321-.253.591-.574.591h-2.21c-.321 0-.591-.27-.591-.59V1.767c0-.32.27-.574.59-.574h2.211a.57.57 0 0 1 .574.574v2.21zm-4.489 5.08a2.809 2.809 0 0 0-2.818-2.801 2.809 2.809 0 0 0-2.818 2.8 2.823 2.823 0 0 0 2.818 2.819 2.823 2.823 0 0 0 2.818-2.818zM13.1 7.943c.101.338.135.692.135 1.046a4.447 4.447 0 0 1-4.438 4.455A4.447 4.447 0 0 1 4.359 8.99c0-.354.034-.708.135-1.046H.359v7.51c0 .81.675 1.485 1.485 1.485H15.75c.81 0 1.485-.675 1.485-1.485v-7.51H13.1z" fill="#3D3D3D"/></svg>