<svg width="19" height="14" fill="none" xmlns="http://www.w3.org/2000/svg"><path opacity=".7" fill-rule="evenodd" clip-rule="evenodd" d="M15.195 2.854s0-.142 0 0c-.72-.707-1.584-.99-2.447-.848.864-.142 1.295-.424 1.44-.566 0-.141 0-.282-.145-.282-.431 0-.863.141-1.151.282.432-.282.575-.424.575-.565-.431 0-.863.283-1.439.707.144-.283.288-.424.144-.566a1.114 1.114 0 0 0-.576.566c-.432.424-.72.706-.864 1.13-.575.99-1.007 1.838-1.295 2.827h-.144a3.378 3.378 0 0 0-1.295-1.13c-.576-.425-1.296-.707-2.16-1.131-.863-.424-1.727-.848-2.735-1.131 0 .99.432 1.837 1.44 2.403-.288 0-.72 0-1.008.141 0 .848.72 1.555 2.015 1.837-.431 0-.863.142-1.295.425.432.848 1.152 1.13 2.303 1.13-.144.142-.432.283-.432.283-.144.141-.288.424-.144.707.288.424.576.565 1.296.565-1.008.99-2.303 1.555-3.743 1.413-.863 0-1.871-.424-2.879-1.272 1.008 1.414 2.447 2.544 4.175 3.251 2.015.565 4.03.707 5.901.141a10.283 10.283 0 0 0 4.895-3.25c.575-.848 1.007-1.696 1.151-2.544 1.008 0 1.728-.283 2.16-.849-.288.142-1.008.142-2.016-.14 1.008-.142 1.728-.425 1.872-.99-.72.282-1.44.282-2.16 0-.144-.99-.575-1.838-1.44-2.544z" fill="#3D3D3D"/></svg>