<svg width="30" height="30" fill="none" xmlns="http://www.w3.org/2000/svg"><path fill-rule="evenodd" clip-rule="evenodd" d="M27.5 14.375c0 .375-.28.625-.625.625H22.5v3.75h4.375c.346 0 .625.313.625.625 0 .375-.28.625-.625.625H22.5v3.75h4.375c.346 0 .625.313.625.625 0 .375-.28.625-.625.625H22.5v1.875c0 .375-.28.625-.625.625a.607.607 0 0 1-.625-.625V25h-5.625v1.875c0 .375-.28.625-.625.625a.607.607 0 0 1-.625-.625V25H8.75v1.875c0 .375-.28.625-.625.625a.607.607 0 0 1-.625-.625V25H3.125a.607.607 0 0 1-.625-.625c0-.313.28-.625.625-.625H7.5V20H3.125a.607.607 0 0 1-.625-.625c0-.313.28-.625.625-.625H7.5V15H3.125a.607.607 0 0 1-.625-.625c0-.313.28-.625.625-.625H7.5v-1.875c0-.313.28-.625.625-.625.346 0 .625.313.625.625v1.875h5.625v-1.875c0-.313.28-.625.625-.625.346 0 .625.313.625.625v1.875h5.625v-1.875c0-.313.28-.625.625-.625.346 0 .625.313.625.625v1.875h4.375c.346 0 .625.313.625.625zm-6.25 4.375h-5.625V15h5.625v3.75zm0 5h-5.625V20h5.625v3.75zm-6.875 0H8.75V20h5.625v3.75zm0-5H8.75V15h5.625v3.75z" fill="#fff"/><path fill-rule="evenodd" clip-rule="evenodd" d="M25 2.5h4.375c.346 0 .625.313.625.625v26.25c0 .375-.28.625-.625.625H.625A.607.607 0 0 1 0 29.375V3.125C0 2.812.28 2.5.625 2.5H5V.625C5 .312 5.28 0 5.625 0h3.75c.346 0 .625.313.625.625V2.5h10V.625c0-.313.28-.625.625-.625h3.75c.346 0 .625.313.625.625V2.5zm3.75 7.5v18.75H1.25V10h27.5zM5 5.625V3.75H1.25v5h27.5v-5H25v1.875c0 .375-.28.625-.625.625h-3.75A.607.607 0 0 1 20 5.625V3.75H10v1.875c0 .375-.28.625-.625.625h-3.75A.607.607 0 0 1 5 5.625zM8.75 5h-2.5V1.25h2.5V5zm15 0h-2.5V1.25h2.5V5z" fill="#fff"/></svg>